HIERARCHY
ROOT RootJoint
{
    OFFSET   0.000000   0.000000   0.000000
    CHANNELS 6 Xposition Yposition Zposition Xrotation Yrotation Zrotation
    JOINT pelvis_lowerback
    {
        OFFSET   0.000000   0.093605   0.000000
        CHANNELS 3 Xrotation Yrotation Zrotation
        JOINT lowerback_torso
        {
            OFFSET   0.000000   0.100000   0.000000
            CHANNELS 3 Xrotation Yrotation Zrotation
            JOINT torso_head
            {
                OFFSET   0.000000   0.282350   0.000000
                CHANNELS 3 Xrotation Yrotation Zrotation
                End Site
                {
                    OFFSET   0.000000   0.192650   0.000000
                }
            }
            JOINT rTorso_Clavicle
            {
                OFFSET  -0.001000   0.157500   0.000000
                CHANNELS 3 Xrotation Yrotation Zrotation
                JOINT rShoulder
                {
                    OFFSET  -0.117647   0.000000   0.000000
                    CHANNELS 3 Xrotation Yrotation Zrotation
                    JOINT rElbow
                    {
                        OFFSET  -0.245000   0.000000   0.000000
                        CHANNELS 3 Xrotation Yrotation Zrotation
                        JOINT rWrist
                        {
                            OFFSET  -0.240000   0.000000   0.000000
                            CHANNELS 3 Xrotation Yrotation Zrotation
                            End Site
                            {
                                OFFSET  -0.116353  -0.002500   0.000000
                            }
                        }
                    }
                }
            }
            JOINT lTorso_Clavicle
            {
                OFFSET   0.001000   0.157500   0.000000
                CHANNELS 3 Xrotation Yrotation Zrotation
                JOINT lShoulder
                {
                    OFFSET   0.117647   0.000000   0.000000
                    CHANNELS 3 Xrotation Yrotation Zrotation
                    JOINT lElbow
                    {
                        OFFSET   0.245000   0.000000   0.000000
                        CHANNELS 3 Xrotation Yrotation Zrotation
                        JOINT lWrist
                        {
                            OFFSET   0.240000   0.000000   0.000000
                            CHANNELS 3 Xrotation Yrotation Zrotation
                            End Site
                            {
                                OFFSET   0.116353  -0.002500   0.000000
                            }
                        }
                    }
                }
            }
        }
    }
    JOINT rHip
    {
        OFFSET  -0.100000  -0.051395   0.000000
        CHANNELS 3 Xrotation Yrotation Zrotation
        JOINT rKnee
        {
            OFFSET   0.000000  -0.410000   0.000000
            CHANNELS 3 Xrotation Yrotation Zrotation
            JOINT rAnkle
            {
                OFFSET   0.000000  -0.390000   0.000000
                CHANNELS 3 Xrotation Yrotation Zrotation
                JOINT rToeJoint
                {
                    OFFSET   0.000000  -0.050000   0.130000
                    CHANNELS 3 Xrotation Yrotation Zrotation
                    End Site
                    {
                        OFFSET  -0.010000   0.002000   0.060000
                    }
                }
            }
        }
    }
    JOINT lHip
    {
        OFFSET   0.100000  -0.051395   0.000000
        CHANNELS 3 Xrotation Yrotation Zrotation
        JOINT lKnee
        {
            OFFSET   0.000000  -0.410000   0.000000
            CHANNELS 3 Xrotation Yrotation Zrotation
            JOINT lAnkle
            {
                OFFSET   0.000000  -0.390000   0.000000
                CHANNELS 3 Xrotation Yrotation Zrotation
                JOINT lToeJoint
                {
                    OFFSET   0.000000  -0.050000   0.130000
                    CHANNELS 3 Xrotation Yrotation Zrotation
                    End Site
                    {
                        OFFSET   0.010000   0.002000   0.060000
                    }
                }
            }
        }
    }
}
MOTION
Frames: 7
Frame Time:   0.008333
 -2.496958   0.899824   4.584934   0.980765 -13.958741   4.049913  -0.580977   4.603074  -3.141726   2.113465  -0.448170  -0.538041  -0.674817   2.656082   1.463085   4.381127  -1.318529  13.972778  11.504031  15.920269  45.843058  -0.000001  19.090641  -0.000100  10.525366   2.057491   0.154021   2.487529   3.288432 -15.100131   7.648185  -5.677929 -42.989083  -0.000076 -22.249267  -0.000137   7.524019  -2.926005   2.808753   6.187393   0.895870  -4.127760  16.427424   0.000221  -0.000088 -19.570378   3.275920  -0.181569  -6.490349   0.000201  -0.000190 -23.955434  -1.183422   3.999439  10.186521  -0.001449   0.003601  -1.705399   7.480154  -0.758623  -0.228233   0.000020  -0.000098
 -2.496033   0.899609   4.590075   0.996735 -14.062285   4.044567  -0.608211   4.602790  -3.136502   2.093866  -0.447711  -0.543710  -0.715584   2.631020   1.481079   4.422014  -1.357342  13.898808  11.481948  15.905576  45.932392  -0.000002  19.101506  -0.000065  10.465287   2.049145   0.170081   2.539852   3.346284 -15.041892   7.694412  -5.707057 -43.057111  -0.000093 -22.186216  -0.000171   7.516718  -2.954968   2.768172   6.460344   1.023737  -4.281293  16.467059   0.000230  -0.000071 -19.421321   3.260738  -0.041070  -7.133581   0.000318  -0.000341 -23.643200  -1.127426   3.914610   9.826399  -0.001589   0.003128  -1.455499   7.573903  -0.686265  -0.228814   0.000016  -0.000078
 -2.495022   0.899450   4.595334   1.028763 -14.167853   4.053233  -0.649048   4.603074  -3.131239   2.065086  -0.445494  -0.552523  -0.759043   2.606148   1.498564   4.464468  -1.397664  13.820688  11.464906  15.888870  46.014614  -0.000004  19.111419  -0.000039  10.407087   2.044871   0.191462   2.597155   3.406774 -14.985888   7.743785  -5.729031 -43.123133  -0.000100 -22.124377  -0.000194   7.509824  -2.970431   2.712663   6.719292   1.149730  -4.454103  16.506948   0.000239  -0.000058 -19.228780   3.246610   0.099813  -7.864149   0.000402  -0.000468 -23.335413  -1.070585   3.808443   9.507588  -0.001682   0.002742  -1.220286   7.662561  -0.619369  -0.220712   0.000016  -0.000062
 -2.493953   0.899295   4.600669   1.077385 -14.269010   4.067845  -0.697961   4.603215  -3.124578   2.029702  -0.443321  -0.560453  -0.802237   2.582657   1.515364   4.505255  -1.437575  13.741581  11.450479  15.871502  46.088701  -0.000005  19.120411  -0.000019  10.351109   2.040040   0.209989   2.653379   3.466092 -14.929739   7.791995  -5.747281 -43.183808  -0.000098 -22.065841  -0.000206   7.502915  -2.979437   2.655878   6.962905   1.269744  -4.634344  16.547949   0.000250  -0.000049 -19.014101   3.234635   0.239204  -8.646252   0.000446  -0.000578 -23.038735  -1.016904   3.694401   9.218522  -0.001728   0.002412  -1.000419   7.745301  -0.557493  -0.212810   0.000016  -0.000050
 -2.492834   0.899113   4.606062   1.142197 -14.363369   4.084756  -0.751539   4.603105  -3.115717   1.989920  -0.441578  -0.566352  -0.844121   2.560603   1.531381   4.543194  -1.475812  13.663083  11.437493  15.854405  46.155299  -0.000006  19.128770  -0.000005  10.297352   2.034700   0.223686   2.706034   3.522326 -14.873052   7.837288  -5.763608 -43.238273  -0.000091 -22.011189  -0.000210   7.496199  -2.986629   2.603704   7.192443   1.381996  -4.815955  16.589123   0.000260  -0.000043 -18.793597   3.226488   0.362712  -9.452827   0.000361  -0.000696 -22.756014  -0.966721   3.579156   8.953455  -0.001734   0.002122  -0.795080   7.822578  -0.500141  -0.205564   0.000016  -0.000040
 -2.491671   0.898883   4.611504   1.222739 -14.449573   4.102036  -0.807665   4.602591  -3.104437   1.947284  -0.440442  -0.569778  -0.884230   2.539944   1.546610   4.577950  -1.511825  13.586342  11.425356  15.838083  46.215351  -0.000006  19.136686   0.000005  10.245775   2.029541   0.232742   2.754238   3.574726 -14.816087   7.879044  -5.778890 -43.286677  -0.000079 -21.960519  -0.000208   7.489792  -2.994294   2.558029   7.409134   1.486408  -4.996327  16.629566   0.000267  -0.000038 -18.575190   3.220962   0.473302 -10.269177   0.000190  -0.000818 -22.488644  -0.920049   3.466406   8.708951  -0.001707   0.001862  -0.603374   7.894783  -0.446918  -0.198995   0.000016  -0.000032
 -2.490468   0.898594   4.616989   1.318493 -14.526517   4.118461  -0.864975   4.601493  -3.090719   1.902947  -0.440047  -0.570589  -0.922362   2.520606   1.561080   4.609623  -1.545482  13.512242  11.413814  15.822746  46.269790  -0.000006  19.144241   0.000011  10.196308   2.024999   0.237970   2.797847   3.623101 -14.759375   7.917166  -5.793555 -43.329548  -0.000067 -21.913705  -0.000203   7.483737  -3.003388   2.519027   7.614117   1.583385  -5.173897  16.668790   0.000272  -0.000034 -18.363709   3.217551   0.573297 -11.086225  -0.000030  -0.000949 -22.237106  -0.876796   3.358317   8.482584  -0.001655   0.001627  -0.424427   7.962261  -0.397484  -0.193054   0.000016  -0.000026
